# xmcd
#
# Track frame offsets:
#   150
#   26430
#   43610
#   70970
#   108070
#   134650
#   150857
#   167387
#   185652
#   204382
#   226520
#   245452
#   266562
#   289197
#   310135
#   335767
#
# Disc length: 4741 seconds
#
# Revision: 4
# Processed by: cddbd v1.5PL3 Copyright (c) Steve Scherf et al.
# Submitted via: Media_Universe 3.0
#
DISCID=d5128310
DTITLE=Dire Straits - Sultans of Swing
DYEAR=1998
DGENRE=Rock
TTITLE0=Sultans of Swing
TTITLE1=Lady Writer
TTITLE2=Romeo and Juliet
TTITLE3=Tunnel of Love
TTITLE4=Private Investigators
TTITLE5=Twisting by the Pool
TTITLE6=Love Over Gold (Live)
TTITLE7=So Far Away
TTITLE8=Money For Nothing
TTITLE9=Brothers in Arms
TTITLE10=Walk of Life
TTITLE11=Calling Elvis
TTITLE12=Heavy Fuel
TTITLE13=On Every Street
TTITLE14=Your Latest Trick (Live)
TTITLE15=Local Hero - Wild Theme (Live)
EXTD=ID3G: 0
EXTT0=
EXTT1=
EXTT2=
EXTT3=
EXTT4=
EXTT5=
EXTT6=
EXTT7=
EXTT8=
EXTT9=
EXTT10=
EXTT11=
EXTT12=
EXTT13=
EXTT14=
EXTT15=
PLAYORDER=
